<svg width="20" height="20" viewBox="0 0 20 20" fill="none" xmlns="http://www.w3.org/2000/svg">
<path d="M15.8333 8.75004V7.33337H12.1667V12.6667H13.5833V11H15.25V9.58337H13.5833V8.75004H15.8333ZM9.74999 7.33337H11.1667V12.6667H9.74999V7.33337ZM6.75 8.66671C7.08333 8.66671 7.5 8.83337 7.75 9.08337L8.75 8.25004C8.25 7.66671 7.5 7.33337 6.75 7.33337C5.25 7.33337 4.08333 8.50004 4.08333 10C4.08333 11.5 5.25 12.6667 6.75 12.6667C7.58333 12.6667 8.25 12.3334 8.75 11.75V9.66671H6.41666V10.6667H7.41666V11.1667C7.24999 11.25 7 11.3334 6.75 11.3334C6 11.3334 5.41666 10.75 5.41666 10C5.41666 9.33337 6 8.66671 6.75 8.66671Z" fill="#1D9BF0"/>
<path d="M17.0833 1.68335H2.91667C1.88334 1.68335 1.04167 2.52252 1.04167 3.55585V16.4783C1.04167 17.51 1.88334 18.35 2.91667 18.35H17.0833C18.1167 18.35 18.9583 17.51 18.9583 16.4783V3.55585C18.9583 2.52252 18.1167 1.68335 17.0833 1.68335ZM17.7083 16.4783C17.7083 16.82 17.4283 17.1 17.0833 17.1H2.91667C2.57167 17.1 2.29167 16.82 2.29167 16.4783V3.55585C2.29167 3.21252 2.57167 2.93335 2.91667 2.93335H17.0833C17.4283 2.93335 17.7083 3.21252 17.7083 3.55585V16.4783Z" fill="#1D9BF0"/>
</svg>
