<svg width="20" height="20" viewBox="0 0 20 20" fill="none" xmlns="http://www.w3.org/2000/svg">
<path d="M16.4583 1.66669H3.54167C2.50834 1.66669 1.66667 2.50835 1.66667 3.54169V16.4584C1.66667 17.4917 2.50834 18.3334 3.54167 18.3334H16.4583C17.4917 18.3334 18.3333 17.4917 18.3333 16.4584V3.54169C18.3333 2.50835 17.4917 1.66669 16.4583 1.66669ZM3.54167 2.91669H16.4583C16.8025 2.91669 17.0833 3.19752 17.0833 3.54169V11.605L13.8683 8.39002C13.7517 8.27335 13.5933 8.20669 13.4267 8.20669H13.4242C13.2575 8.20669 13.0967 8.27335 12.9808 8.39335L9.38334 12.0467L7.87251 10.5417C7.75584 10.425 7.59751 10.3584 7.43084 10.3584C7.27001 10.3334 7.10167 10.425 6.98501 10.5475L2.91667 14.7017V3.54169C2.91667 3.19752 3.19751 2.91669 3.54167 2.91669ZM2.92167 16.4834L7.43667 11.8717L12.6717 17.0834H3.54167C3.20667 17.0834 2.93584 16.815 2.92167 16.4834ZM16.4583 17.0834H14.4417L10.2692 12.9275L13.4292 9.71919L17.0833 13.3725V16.4584C17.0833 16.8025 16.8025 17.0834 16.4583 17.0834Z" fill="#1D9BF0"/>
<path d="M7.39 8.20916C8.09968 8.20916 8.675 7.63385 8.675 6.92416C8.675 6.21447 8.09968 5.63916 7.39 5.63916C6.68031 5.63916 6.105 6.21447 6.105 6.92416C6.105 7.63385 6.68031 8.20916 7.39 8.20916Z" fill="#1D9BF0"/>
</svg>
