<svg width="20" height="20" viewBox="0 0 20 20" fill="none" xmlns="http://www.w3.org/2000/svg">
<path d="M4.16667 11.6667C5.08714 11.6667 5.83333 10.9205 5.83333 10C5.83333 9.07954 5.08714 8.33334 4.16667 8.33334C3.24619 8.33334 2.5 9.07954 2.5 10C2.5 10.9205 3.24619 11.6667 4.16667 11.6667Z" fill="#D9D9D9"/>
<path d="M9.99998 11.6667C10.9205 11.6667 11.6666 10.9205 11.6666 10C11.6666 9.07954 10.9205 8.33334 9.99998 8.33334C9.0795 8.33334 8.33331 9.07954 8.33331 10C8.33331 10.9205 9.0795 11.6667 9.99998 11.6667Z" fill="#D9D9D9"/>
<path d="M15.8334 11.6667C16.7538 11.6667 17.5 10.9205 17.5 10C17.5 9.07954 16.7538 8.33334 15.8334 8.33334C14.9129 8.33334 14.1667 9.07954 14.1667 10C14.1667 10.9205 14.9129 11.6667 15.8334 11.6667Z" fill="#D9D9D9"/>
</svg>
