<svg width="20" height="20" viewBox="0 0 20 20" fill="none" xmlns="http://www.w3.org/2000/svg">
<path d="M16.4584 6.09166H14.8917C14.7334 3.525 12.6034 1.48666 10 1.48666C7.39669 1.48666 5.26669 3.52666 5.10835 6.09166H3.54169C2.50835 6.09166 1.66669 6.93083 1.66669 7.96666V16.4917C1.66669 17.525 2.50835 18.3667 3.54169 18.3667H16.4584C17.4917 18.3667 18.3334 17.525 18.3334 16.4917V7.96666C18.3334 6.93166 17.4917 6.09166 16.4584 6.09166ZM10.625 13.0725V14.2358C10.625 14.5808 10.345 14.8608 10 14.8608C9.65502 14.8608 9.37502 14.5808 9.37502 14.2358V13.0725C8.73835 12.8225 8.28585 12.2058 8.28585 11.4808C8.28585 10.5333 9.05252 9.76583 10 9.76583C10.9467 9.76583 11.7142 10.5325 11.7142 11.4792C11.7142 12.2042 11.2617 12.8208 10.625 13.0708V13.0725ZM6.37335 6.09166C6.53169 4.21666 8.08752 2.73666 10 2.73666C11.9125 2.73666 13.4692 4.2175 13.6267 6.08916H6.37335V6.09166Z" fill="#D9D9D9"/>
</svg>
