<svg width="20" height="21" viewBox="0 0 20 21" fill="none" xmlns="http://www.w3.org/2000/svg">
<path d="M10 18.5317H9.98834C7.83584 18.4917 1.62501 12.88 1.62501 7.565C1.62501 5.01167 3.72917 2.77 6.12751 2.77C8.03584 2.77 9.31918 4.08667 9.99918 5.045C10.6775 4.08834 11.9608 2.77 13.87 2.77C16.27 2.77 18.3733 5.01167 18.3733 7.56584C18.3733 12.8792 12.1617 18.4908 10.0092 18.53H10V18.5317ZM6.12834 4.02084C4.39501 4.02084 2.87584 5.6775 2.87584 7.56667C2.87584 12.35 8.73751 17.23 10.0008 17.2817C11.2658 17.23 17.1258 12.3508 17.1258 7.56667C17.1258 5.6775 15.6067 4.02084 13.8733 4.02084C11.7667 4.02084 10.59 6.4675 10.58 6.49167C10.3883 6.96 9.61668 6.96 9.42418 6.49167C9.41251 6.46667 8.23667 4.02084 6.12917 4.02084H6.12834Z" fill="#6E767D"/>
</svg>
