<svg width="20" height="20" viewBox="0 0 20 20" fill="none" xmlns="http://www.w3.org/2000/svg">
<g clip-path="url(#clip0_103_319)">
<path d="M-31.5833 15C-31.6667 14.9167 -31.6667 14.9167 -31.6667 14.8334C-31.5833 14.8334 -31.5833 14.9167 -31.5833 15ZM15 1.83335H13.9167V1.58335C13.9167 1.25002 13.6667 0.916687 13.25 0.916687C12.9167 0.916687 12.5833 1.16669 12.5833 1.58335V1.83335H6.41666V1.58335C6.41666 1.25002 6.16666 0.916687 5.75 0.916687C5.41666 0.916687 5.08333 1.16669 5.08333 1.58335V1.83335H4C2.83333 1.83335 1.91666 2.75002 1.91666 3.91669V14.8334C1.91666 16 2.83333 16.9167 4 16.9167H6.41666C6.75 16.9167 7.08333 16.6667 7.08333 16.25C7.08333 15.9167 6.83333 15.5834 6.41666 15.5834H4C3.5 15.5834 3.16666 15.1667 3.16666 14.75V6.58335C3.16666 6.33335 3.5 6.00002 4 6.00002H15C15.5 6.00002 15.8333 6.33335 15.8333 6.58335V8.08335C15.8333 8.41669 16.0833 8.75002 16.5 8.75002C16.8333 8.75002 17.1667 8.50002 17.1667 8.08335V3.91669C17.0833 2.75002 16.1667 1.83335 15 1.83335ZM15.8333 4.91669C15.5833 4.83335 15.25 4.75002 15 4.75002H4C3.66666 4.75002 3.41666 4.83335 3.16666 4.91669V3.91669C3.16666 3.41669 3.58333 3.08335 4 3.08335H5.08333V3.50002C5.08333 3.83335 5.33333 4.16669 5.75 4.16669C6.08333 4.16669 6.41666 3.91669 6.41666 3.50002V3.08335H12.6667V3.50002C12.6667 3.83335 12.9167 4.16669 13.3333 4.16669C13.6667 4.16669 14 3.91669 14 3.50002V3.08335H15C15.5 3.08335 15.8333 3.50002 15.8333 3.91669V4.91669Z" fill="#1D9BF0"/>
<path d="M12.9167 8.66669C10.0833 8.66669 7.75 11 7.75 13.8334C7.75 16.6667 10.0833 19 12.9167 19C15.75 19 18.0833 16.6667 18.0833 13.8334C18.0833 11 15.75 8.66669 12.9167 8.66669ZM12.9167 17.8334C10.75 17.8334 9 16.0834 9 13.9167C9 11.75 10.75 10 12.9167 10C15.0833 10 16.8333 11.75 16.8333 13.9167C16.8333 16 15.0833 17.8334 12.9167 17.8334Z" fill="#1D9BF0"/>
<path d="M15.75 15.5833C15.6667 15.75 15.4167 15.9167 15.25 15.9167C15.1667 15.9167 15 15.9167 14.9167 15.8333L12.3333 14.1667V11.6667C12.3333 11.3333 12.5833 11 13 11C13.3333 11 13.6667 11.25 13.6667 11.6667V13.5L15.6667 14.75C15.8333 14.9167 15.9167 15.25 15.75 15.5833Z" fill="#1D9BF0"/>
</g>
<defs>
<clipPath id="clip0_103_319">
<rect width="20" height="20" fill="white"/>
</clipPath>
</defs>
</svg>
