<svg width="20" height="20" viewBox="0 0 20 20" fill="none" xmlns="http://www.w3.org/2000/svg">
<path d="M18.9767 8.75498L14.295 6.92831L12.495 1.51165C12.41 1.25581 12.17 1.08331 11.9017 1.08331C11.6333 1.08331 11.3933 1.25581 11.3083 1.51081L9.50833 6.92748L4.825 8.75415C4.58583 8.84748 4.4275 9.07915 4.4275 9.33748C4.4275 9.59581 4.58583 9.82498 4.82583 9.91915L9.50917 11.7458L11.3092 17.1625C11.3942 17.4175 11.6342 17.59 11.9025 17.59C12.1708 17.59 12.4108 17.4175 12.4958 17.1625L14.2958 11.7458L18.9792 9.91915C19.2183 9.82581 19.3767 9.59415 19.3767 9.33581C19.3767 9.07748 19.2183 8.84831 18.9783 8.75498H18.9767ZM13.5683 10.6883C13.395 10.755 13.26 10.8966 13.2017 11.0716L11.9017 14.9841L10.6017 11.0733C10.5433 10.8983 10.41 10.7566 10.2367 10.6883L6.77417 9.33831L10.2358 7.98665C10.4092 7.91998 10.5442 7.77831 10.6025 7.60165L11.9025 3.69081L13.2025 7.60248C13.2608 7.77915 13.3942 7.92081 13.5675 7.98831L17.03 9.33831L13.5675 10.69L13.5683 10.6883ZM5.5525 3.17665H3.98583V1.70831C3.98583 1.36331 3.705 1.08331 3.36083 1.08331C3.01667 1.08331 2.73583 1.36331 2.73583 1.70831V3.17665H1.25C0.905 3.17665 0.625 3.45665 0.625 3.80165C0.625 4.14665 0.905 4.42665 1.25 4.42665H2.735V5.89498C2.735 6.23998 3.015 6.51998 3.36 6.51998C3.705 6.51998 3.985 6.23998 3.985 5.89498V4.42665H5.55167C5.8975 4.42665 6.17667 4.14665 6.17667 3.80165C6.17667 3.45665 5.8975 3.17665 5.55167 3.17665H5.5525ZM7.665 16.195H6.74833V15.3483C6.74833 15.0033 6.46917 14.7233 6.12333 14.7233C5.7775 14.7233 5.49833 15.0033 5.49833 15.3483V16.195H4.64167C4.29667 16.195 4.01667 16.475 4.01667 16.82C4.01667 17.165 4.29667 17.445 4.64167 17.445H5.5V18.2916C5.5 18.6366 5.77917 18.9166 6.125 18.9166C6.47083 18.9166 6.75 18.6366 6.75 18.2916V17.445H7.665C8.01 17.445 8.29 17.165 8.29 16.82C8.29 16.475 8.01 16.195 7.665 16.195Z" fill="#D9D9D9"/>
</svg>
